<?xml version="1.0" standalone="no"?>
<!DOCTYPE svg PUBLIC "-//W3C//DTD SVG 20010904//EN"
 "http://www.w3.org/TR/2001/REC-SVG-20010904/DTD/svg10.dtd">
<svg version="1.0" xmlns="http://www.w3.org/2000/svg"
 width="600.000000pt" height="315.000000pt" viewBox="0 0 600.000000 315.000000"
 preserveAspectRatio="xMidYMid meet">

<g transform="translate(0.000000,315.000000) scale(0.100000,-0.100000)"
fill="#000000">
<path d="M1782 2325 c3 -25 -1 -30 -37 -43 -150 -52 -342 -129 -540 -217 -134
-59 -251 -105 -280 -109 -27 -4 -119 -16 -204 -26 -85 -11 -160 -25 -168 -32
-10 -8 -13 -22 -9 -41 3 -16 -2 -51 -14 -83 -10 -31 -26 -110 -36 -177 -12
-88 -22 -130 -37 -152 -34 -48 -35 -133 -3 -230 47 -143 44 -137 90 -133 23 3
59 -2 81 -9 38 -14 315 -72 343 -73 8 0 12 21 12 75 0 200 77 332 238 408 63
30 73 32 182 32 144 -1 203 -21 289 -100 93 -87 147 -211 160 -365 l6 -75 620
-6 c341 -4 863 -9 1161 -12 l541 -5 6 97 c8 161 74 315 166 392 90 75 223 114
332 99 167 -24 286 -105 346 -236 32 -71 56 -203 49 -276 -5 -55 -5 -58 17
-58 27 0 371 64 410 76 22 7 22 39 -2 78 -16 25 -19 49 -19 131 2 174 -52 319
-142 384 -88 64 -306 128 -615 181 -236 40 -527 73 -610 68 -68 -4 -71 -3
-135 39 -73 49 -460 246 -620 315 -119 52 -194 71 -360 89 -208 23 -739 13
-1060 -20 -67 -6 -113 3 -144 28 -16 13 -17 12 -14 -14z m750 -240 c14 -104
25 -191 23 -193 -8 -8 -865 12 -865 20 0 6 37 70 81 144 l82 133 61 20 c135
44 323 70 496 67 l95 -1 27 -190z m468 160 c149 -21 194 -36 378 -126 156 -76
189 -99 139 -99 -36 0 -55 -21 -69 -73 -10 -39 -10 -52 1 -69 l13 -21 -349 8
c-191 4 -349 8 -351 10 -5 5 -132 379 -132 389 0 12 236 0 370 -19z m-1242
-107 c-8 -13 -45 -71 -83 -130 l-67 -108 -104 0 c-122 0 -128 7 -56 63 44 33
310 197 320 197 2 0 -2 -10 -10 -22z m-1119 -389 c34 -12 65 -27 67 -34 8 -21
-23 -82 -50 -100 -20 -14 -38 -16 -81 -10 l-55 6 0 42 c0 64 18 117 39 117 9
0 45 -10 80 -21z m4675 -165 c41 -6 51 -12 77 -50 16 -24 32 -57 35 -74 l7
-31 -44 7 c-24 4 -54 11 -67 15 -13 5 -49 9 -81 9 -56 0 -58 1 -89 45 -36 52
-40 71 -14 78 27 7 125 8 176 1z m-2800 -314 c265 -17 582 -37 706 -45 124 -8
351 -22 505 -30 220 -12 287 -19 315 -33 l35 -17 -55 -3 c-30 -2 -210 4 -400
13 -190 9 -595 27 -900 40 -722 32 -820 37 -820 42 0 3 10 18 23 33 28 37 1
37 591 0z m2834 -109 c5 -31 -16 -55 -34 -40 -17 14 -18 41 -2 57 17 17 32 10
36 -17z"/>
</g>
</svg>
