<?xml version="1.0" standalone="no"?>
<!DOCTYPE svg PUBLIC "-//W3C//DTD SVG 20010904//EN"
 "http://www.w3.org/TR/2001/REC-SVG-20010904/DTD/svg10.dtd">
<svg version="1.0" xmlns="http://www.w3.org/2000/svg"
 width="100.000000pt" height="100.000000pt" viewBox="0 0 512.000000 512.000000"
 preserveAspectRatio="xMidYMid meet">
 <g transform="translate(0.000000,512.000000) scale(0.100000,-0.100000)"
fill="#000000" stroke="none">
 <path d="M2330 5110 c-494 -48 -950 -230 -1350 -538 -195 -150 -448 -432 -594
-662 -63 -99 -186 -351 -230 -471 -49 -134 -102 -340 -128 -499 -31 -195 -31
-565 0 -760 45 -276 116 -498 237 -745 132 -269 269 -460 489 -681 221 -220
412 -357 681 -489 247 -121 469 -192 745 -237 195 -31 565 -31 760 0 276 45
498 116 745 237 269 132 460 269 681 489 220 221 357 412 489 681 88 179 132
296 180 476 63 240 78 371 78 649 0 278 -15 409 -78 649 -48 180 -92 297 -180
476 -132 269 -269 460 -489 681 -221 220 -412 357 -681 489 -246 121 -474 193
-740 235 -147 23 -475 34 -615 20z m550 -659 c400 -70 749 -251 1035 -536 292
-292 472 -646 542 -1065 24 -144 24 -436 0 -580 -70 -419 -250 -773 -542
-1065 -292 -292 -646 -472 -1065 -542 -144 -24 -436 -24 -580 0 -419 70 -773
250 -1065 542 -292 292 -472 646 -542 1065 -24 144 -24 436 0 580 96 575 416
1052 907 1352 244 149 489 229 830 272 82 10 369 -4 480 -23z"/>
 
</g>
<g transform="translate(0.000000,512.000000) scale(0.100000,-0.100000)"
fill="#666666" stroke="none">

<path d="M2430 4259 c-837 -61 -1511 -739 -1569 -1581 -66 -938 643 -1752
1581 -1817 938 -66 1752 643 1817 1581 35 494 -144 971 -495 1322 -354 354
-833 532 -1334 495z m335 -229 c90 -13 232 -48 267 -66 49 -25 61 -64 49 -158
-28 -208 -109 -378 -235 -494 -316 -288 -737 -30 -807 494 -12 94 0 133 49
158 33 17 176 53 257 65 84 12 336 13 420 1z m-1105 -380 c22 -12 120 -131
177 -215 155 -231 187 -444 88 -594 -113 -170 -456 -224 -721 -114 -56 23 -73
35 -89 65 -18 34 -18 42 -6 100 31 155 106 329 205 477 69 104 200 256 238
277 28 16 82 18 108 4z m1908 -4 c38 -21 169 -173 238 -277 99 -148 174 -322
205 -477 12 -58 12 -66 -6 -100 -16 -30 -33 -42 -89 -65 -265 -110 -608 -56
-721 114 -99 150 -67 363 88 594 53 79 153 202 175 214 24 14 83 13 110 -3z
m-888 -678 c200 -60 329 -262 300 -469 -26 -182 -177 -333 -359 -359 -279 -39
-520 202 -481 481 36 252 297 420 540 347z m1173 -552 c106 -36 134 -51 152
-86 20 -39 19 -60 -10 -168 -54 -201 -176 -420 -329 -592 -85 -94 -106 -109
-154 -110 -48 0 -64 11 -130 93 -164 202 -243 372 -243 523 0 39 3 84 7 100
20 85 91 167 184 213 48 24 76 34 165 55 11 3 79 3 150 1 107 -3 144 -8 208
-29z m-2174 -2 c152 -38 257 -126 292 -246 26 -90 3 -252 -53 -363 -32 -64
-126 -204 -182 -272 -103 -126 -145 -124 -269 7 -145 154 -254 338 -322 544
-48 143 -54 202 -26 238 70 88 375 138 560 92z m1043 -532 c72 -33 133 -81
189 -149 111 -134 209 -457 164 -542 -21 -41 -49 -54 -190 -87 -111 -26 -135
-28 -325 -28 -190 0 -214 2 -325 28 -141 33 -169 46 -190 87 -45 85 53 408
164 542 74 88 170 154 258 177 70 17 186 5 255 -28z"/>
</g>
</svg>
